<svg width="1147" height="1147" viewBox="0 0 1147 1147" fill="none" xmlns="http://www.w3.org/2000/svg">
<g clip-path="url(#clip0_400_111)">
<rect width="1147" height="1147" rx="340" fill="#070707"/>
<path d="M276.345 780.066C275.342 780.066 276.345 773.536 281.358 753.48C283.364 745.948 284.857 740.444 284.857 741.447C284.857 741.936 286.372 737.925 287.865 733.914C291.876 720.878 292.879 715.351 293.882 715.351C293.882 715.351 292.879 718.849 291.876 722.884C287.352 736.433 280.845 762.015 280.845 763.508C281.335 764.021 282.338 760.5 283.854 754.973C285.859 749.446 287.865 741.936 288.868 737.925C289.871 734.427 293.392 721.881 296.89 710.337C304.423 683.262 309.926 667.707 316.946 645.622C319.954 636.084 322.473 628.062 322.473 628.062C321.983 627.572 322.473 627.572 322.473 627.572C323.475 628.062 323.989 628.062 323.475 627.083V625.567C323.989 626.569 324.991 622.558 324.991 621.042C325.994 621.532 325.994 621.042 326.507 619.037C327.02 617.031 326.997 616.029 326.997 615.516L327.487 614.513C328 614.513 329.002 611.994 330.005 609.499C331.498 605.488 335.019 595.95 337.025 592.451C337.515 591.449 337.514 589.933 337.514 589.933C337.514 589.443 338.004 588.93 338.004 588.93C338.004 587.927 338.517 586.924 339.52 586.411C340.01 584.896 341.036 580.884 343.041 576.873C345.56 570.344 351.064 554.812 351.577 552.293C352.067 550.288 350.061 555.791 347.566 562.834C343.041 573.865 338.028 586.411 338.028 586.411C337.538 586.901 337.538 586.411 337.538 585.898V584.406C338.028 584.896 340.546 578.879 340.056 578.389V575.87C340.546 575.357 341.059 573.865 341.059 573.352C341.059 572.839 342.062 570.343 343.065 567.825L344.068 562.811C344.068 562.811 345.07 560.805 345.583 558.287C346.073 555.768 346.586 554.276 346.586 554.276C346.096 553.763 345.094 557.284 343.088 562.811C342.085 565.819 339.567 569.83 338.564 571.836C337.561 573.842 337.048 575.847 337.048 576.36C337.048 576.36 336.045 578.366 335.532 580.884C334.529 582.4 334.529 584.406 334.529 584.896L336.022 580.884C336.535 579.369 337.025 578.879 337.538 579.369C337.538 579.882 337.538 580.884 337.048 580.884V581.374C337.048 581.374 337.048 583.38 335.532 584.896C334.529 588.907 334.529 589.909 335.532 588.907C336.022 587.904 336.022 586.901 337.048 587.904C338.051 588.907 335.532 591.915 335.043 591.915C335.043 591.915 334.553 592.405 335.043 592.405C335.043 592.918 335.043 594.41 334.553 595.413L333.037 597.419L334.04 594.9C334.04 593.384 334.04 591.892 334.553 591.379V590.376C333.037 591.892 330.029 600.404 326.017 611.947C324.502 616.961 321.493 624.984 320.001 629.508C318.485 634.522 315.99 641.052 314.474 645.552C313.471 649.074 311.465 655.58 310.463 659.102C308.97 662.6 307.944 665.631 307.944 667.124C307.944 667.637 307.944 668.127 307.454 667.637L305.449 672.651C304.959 675.17 303.933 677.665 303.933 677.665C303.443 677.665 303.443 678.155 303.443 678.668C303.443 679.663 303.606 680.16 303.933 680.16V680.673C303.933 680.673 303.933 681.163 303.443 681.163C302.44 681.653 302.44 682.679 302.44 683.169V683.658C301.927 683.169 300.924 683.169 300.924 683.658C300.924 684.148 301.927 685.174 301.927 685.174C300.924 685.174 300.435 685.664 300.435 686.177V683.658C300.924 681.653 301.927 680.65 301.927 680.137C301.927 680.137 301.927 679.647 302.44 678.644C303.933 673.63 305.938 667.101 305.449 667.101C305.449 667.101 304.959 667.614 304.959 668.103C304.959 668.772 304.625 668.772 303.956 668.103C303.956 667.614 303.466 667.614 303.466 669.106C303.466 669.619 302.977 670.622 302.464 671.625C300.948 674.633 297.939 686.177 298.452 686.667C298.452 686.667 298.452 687.669 297.963 687.669C297.963 687.669 297.45 688.159 297.963 689.185C297.963 690.678 297.963 691.704 297.45 691.704C296.937 691.704 296.96 693.22 296.96 694.223C296.96 695.738 296.96 696.741 295.957 696.741C295.957 696.741 295.444 697.231 295.444 698.747C295.444 699.236 295.444 701.755 294.954 704.274C294.465 705.766 293.952 708.285 293.952 709.801C292.949 710.803 289.94 726.848 286.932 735.873C285.44 740.397 284.927 738.881 286.932 732.375C287.445 729.856 287.445 726.848 287.445 726.848C287.445 726.848 285.929 731.372 284.437 736.386C282.944 741.4 281.918 745.411 281.918 744.921C281.428 744.921 285.929 725.356 287.935 718.849C288.938 715.841 289.94 712.832 289.451 712.832C288.938 712.319 289.451 709.824 289.94 709.824C290.43 709.824 290.43 710.337 290.43 710.827C291.099 710.158 291.099 709.653 290.43 709.311C289.94 707.795 289.94 707.305 290.43 707.305C291.433 707.305 291.433 706.816 291.433 705.79C290.764 705.463 290.764 705.3 291.433 705.3C291.946 705.79 291.946 705.3 291.946 704.81C291.946 704.32 291.946 702.804 292.436 702.291C292.926 701.778 292.926 700.286 292.926 700.286V699.796C293.928 699.796 294.931 694.269 294.931 693.266C295.421 693.756 297.45 688.252 296.937 686.737V684.218C297.263 683.223 297.597 682.889 297.939 683.215V679.694C298.266 678.683 298.429 678.846 298.429 680.184C297.939 681.699 298.429 681.699 298.429 680.697C299.432 680.184 299.432 678.691 299.432 678.178V675.659C299.758 674.322 299.922 673.988 299.922 674.657C300.435 675.659 300.435 674.657 300.435 673.141C300.435 671.625 300.435 670.622 299.922 670.622C299.922 671.625 292.902 694.689 290.384 704.227C289.381 708.238 288.868 709.754 285.859 720.272C284.857 723.28 283.341 729.297 281.848 733.821C278.84 745.365 278.84 744.852 278.327 744.362C278 744.362 278 744.696 278.327 745.365C278.327 745.854 278.327 746.88 277.837 746.88C277.837 746.88 271.307 771.95 271.307 773.466C271.797 773.956 272.31 773.466 272.823 771.95C274.339 768.942 274.339 769.431 272.823 773.956C272.333 776.474 271.82 776.964 270.818 776.964C268.812 776.964 268.812 776.451 270.818 770.947C271.307 768.942 271.82 766.936 271.82 766.423C271.82 765.91 271.82 765.42 272.823 764.418C272.823 763.928 273.313 761.899 273.313 760.896C273.803 758.891 274.829 753.364 276.321 747.347C278.84 734.8 279.33 736.316 278.327 736.316C278.327 736.806 277.837 736.316 277.837 735.803C277.837 734.8 278.327 734.8 278.84 734.8C279.33 735.803 279.33 734.8 279.33 734.311C279.33 733.642 279.166 733.479 278.84 733.821C278.84 734.311 278.327 734.311 278.327 733.821C278.327 733.821 288.868 694.199 289.871 689.185C290.36 688.182 289.871 688.183 289.871 688.183C289.381 688.672 288.868 689.185 288.868 689.698C288.868 691.214 286.862 697.721 286.349 696.718C286.349 695.715 291.363 676.149 292.366 673.141C292.856 671.625 293.882 670.132 293.882 670.132V669.13C294.371 668.127 294.884 666.611 295.374 664.605C295.887 662.6 297.893 656.07 299.898 649.051C301.904 642.521 303.91 633.496 304.912 630.487C306.428 624.471 307.921 617.451 311.932 606.42C312.935 602.899 315.943 594.877 317.949 587.857C319.954 581.328 323.475 571.3 324.968 565.283C326.974 559.266 328.979 553.739 329.492 551.734C330.005 550.241 331.498 547.209 332.011 544.201L335.532 533.66C336.535 530.652 338.541 527.13 339.543 524.635C341.059 520.624 340.546 520.111 342.552 516.613C343.065 515.097 343.555 513.604 343.555 512.602C343.555 512.112 344.044 509.593 345.56 507.588C348.079 501.058 349.058 498.563 348.568 498.05V497.56C349.058 497.56 349.058 496.557 349.058 496.557C349.058 496.215 349.392 496.044 350.061 496.044C350.387 495.718 350.387 495.554 350.061 495.554C348.545 495.554 348.545 493.549 350.061 493.549C350.551 493.549 350.551 493.059 350.551 493.059C350.551 492.733 350.714 492.569 351.04 492.569C351.553 492.569 351.04 492.569 350.551 491.567C350.224 491.24 350.387 491.077 351.04 491.077C351.382 491.077 351.553 490.914 351.553 490.587C351.04 490.587 351.04 489.584 351.553 487.579C352.043 486.086 353.046 485.06 353.046 484.57C353.046 484.57 353.046 483.568 353.559 482.565C353.559 482.075 353.559 480.046 354.562 478.041C357.57 471.021 361.092 462.999 361.092 461.483C361.581 460.993 362.094 458.964 362.607 457.985C363.61 455.979 364.1 454.977 364.1 453.974C364.613 453.484 365.616 451.455 366.106 449.963C367.108 447.444 367.108 445.951 367.621 445.951V444.949C367.621 443.433 369.137 441.94 369.627 439.422C371.306 436.748 371.975 435.411 371.633 435.411C370.63 436.413 358.596 437.929 353.069 437.929C350.061 438.932 346.54 438.932 337.514 440.448C334.996 440.961 332.99 441.451 332.99 441.451C332.501 440.448 331.474 441.451 329.982 441.451C326.974 442.453 323.965 442.966 318.438 442.966C316.433 443.456 313.424 443.456 310.906 444.459C308.387 444.459 304.889 444.972 302.883 444.972C300.878 445.462 297.869 445.462 295.864 445.462C287.842 446.954 281.312 446.954 267.786 447.467C265.267 447.467 263.262 447.467 263.262 446.954C262.772 447.467 262.259 447.467 260.743 447.467C247.194 446.954 246.704 446.954 244.185 444.949C242.18 443.433 241.177 442.943 241.177 442.943C240.687 442.943 239.661 442.43 239.172 441.94C238.682 441.451 237.656 440.424 236.163 439.935C234.158 439.445 233.645 436.437 235.16 435.411C235.65 435.411 235.65 434.408 235.65 433.895C235.65 432.558 234.982 431.889 233.645 431.889C232.642 432.402 231.126 431.889 231.126 431.889C231.126 431.399 232.642 431.399 233.132 431.399C235.137 430.91 234.134 430.91 232.642 429.884C230.636 429.884 230.123 429.394 230.636 429.394C230.963 429.067 230.799 428.904 230.146 428.904C229.657 428.904 228.631 428.414 228.631 428.414C228.631 427.746 228.467 427.746 228.141 428.414C226.135 429.417 226.135 427.412 228.141 425.896C229.478 424.885 229.641 424.38 228.631 424.38C227.628 425.383 227.115 425.383 227.115 423.89C227.115 421.885 228.118 421.372 232.642 418.876C235.65 417.384 239.661 415.378 241.667 415.378C243.672 414.865 246.191 413.862 247.684 413.862C252.208 412.86 262.236 412.346 262.725 412.86C263.052 412.86 263.386 412.689 263.728 412.346C263.728 412.346 265.221 411.344 266.247 412.346C267.584 412.346 268.252 412.012 268.252 411.344C267.739 410.854 268.252 410.854 268.742 411.344C269.745 412.346 270.258 411.344 271.261 410.854C271.587 410.512 271.75 410.512 271.75 410.854C271.261 411.344 271.75 411.344 274.269 411.344C275.762 410.854 276.788 410.854 276.788 410.341C276.788 410.341 277.79 409.851 279.306 409.851C280.822 409.851 281.312 409.851 281.312 410.341V410.854C281.802 410.854 281.802 410.341 281.802 409.851C281.802 408.335 281.312 408.335 282.291 409.361L283.294 410.364C282.291 410.877 283.294 410.877 283.784 410.364C284.274 409.874 284.274 409.361 284.274 409.361C283.784 409.361 287.795 408.359 292.809 408.359H316.876C350.481 407.356 358.013 407.356 358.503 407.869C358.503 408.359 358.993 408.359 358.993 407.869C359.482 407.379 359.996 407.379 360.998 407.869C362.001 408.359 366.012 408.359 373.032 407.869L383.573 407.379L386.581 400.36C392.598 386.321 396.609 378.298 401.133 370.276C402.136 367.757 403.652 364.749 403.652 364.749C402.649 364.259 403.652 364.259 403.652 364.259C404.141 364.749 405.168 362.254 405.168 361.251C404.654 361.251 405.168 360.248 405.657 359.759V360.248C406.66 360.248 406.66 359.759 406.66 359.759C406.66 359.245 407.173 358.756 407.663 358.756C409.179 358.756 410.181 357.753 410.671 357.753C412.187 357.24 412.677 357.24 413.19 357.753C413.532 358.421 414.2 358.756 415.195 358.756C415.708 357.753 416.198 357.753 416.198 358.756C417.201 358.756 417.714 359.245 418.204 359.245C418.693 359.759 418.693 360.248 418.693 362.254C418.204 363.77 418.693 364.259 418.693 363.77C419.696 363.77 420.209 362.767 420.699 362.767C422.036 362.767 422.37 364.275 421.702 367.291V371.815C422.705 371.815 423.218 370.812 423.218 370.812C423.218 370.323 424.22 369.81 425.223 369.81C426.739 369.81 426.739 370.323 427.742 373.821C428.232 375.826 428.745 378.345 428.745 378.345C429.234 378.858 429.234 379.861 429.234 380.351C428.745 381.353 428.232 382.869 428.745 382.869C428.745 382.869 429.234 381.866 429.747 381.377C430.416 381.05 430.921 381.213 431.263 381.866C432.266 383.872 431.753 393.9 429.747 401.432L428.745 407.449H466.361C487.419 407.939 505.982 407.939 506.985 407.939C508.991 408.429 514.518 408.429 519.532 408.429C525.059 409.431 529.56 409.431 530.073 409.431C530.073 409.921 537.605 410.434 545.627 410.434C566.196 412.44 582.241 412.953 583.244 413.956C584.246 414.958 583.733 414.958 582.241 414.958C581.751 413.956 580.748 414.958 580.748 414.958C580.748 415.471 581.751 415.471 583.757 415.471C585.762 415.471 585.762 415.961 584.759 414.958C583.757 413.956 584.759 413.956 586.252 413.956C587.255 413.956 588.771 413.956 588.771 414.958C588.771 415.3 588.436 415.471 587.768 415.471C586.765 414.958 586.252 414.958 586.252 415.471C586.252 415.471 588.771 415.961 591.779 415.961C594.298 416.451 599.311 417.477 602.81 417.967C605.818 418.456 608.826 418.97 610.342 418.97C611.011 418.97 610.84 419.141 609.829 419.483C608.834 420.151 609.168 420.151 610.832 419.483C611.835 419.483 612.837 419.483 612.837 420.485C612.837 420.485 613.327 420.975 613.84 420.975C615.846 420.975 610.342 421.978 608.313 421.978C607.31 421.978 607.8 421.465 608.803 421.465C610.809 420.975 609.806 420.975 605.795 420.975C602.786 421.465 597.772 420.975 595.254 420.975C592.735 420.485 589.237 420.485 587.231 420.485C584.223 420.485 583.71 419.996 584.713 419.483C586.205 418.48 585.716 418.97 583.197 418.97C579.676 418.97 578.673 418.97 579.186 419.483C579.186 420.485 577.67 420.485 572.656 419.483C564.634 419.483 565.123 420.485 573.146 420.975C583.687 421.465 600.734 423.494 599.731 423.983C599.218 423.983 595.207 423.983 591.709 423.47C587.698 422.981 581.168 422.981 576.154 421.978C569.624 421.978 568.622 422.468 573.146 422.981C583.174 423.983 579.163 423.983 566.126 423.47C559.107 423.47 552.577 423.47 552.087 422.981C551.598 422.981 551.085 422.981 551.085 423.47C550.416 423.812 549.911 423.812 549.569 423.47C549.079 422.981 548.566 422.981 548.566 423.47C548.566 423.47 548.566 423.983 547.563 423.983C545.558 423.983 493.902 424.473 481.869 424.473C463.819 425.476 420.676 428.997 420.186 430V431.516C420.186 431.516 425.713 430.513 433.222 430C453.791 427.995 481.869 426.502 476.855 427.482C474.849 427.482 472.331 428.484 470.838 428.484C468.32 428.484 462.816 428.974 457.802 429.487C452.788 429.487 444.766 431.003 439.752 431.003C434.738 431.493 428.208 432.006 425.2 432.006C418.18 432.519 419.673 432.006 415.662 440.541C414.659 443.06 411.651 448.074 410.135 451.572L407.126 458.591C407.126 459.081 407.126 459.594 406.613 459.594C406.613 459.594 405.611 459.594 405.611 460.597C405.611 461.087 405.121 462.089 404.608 464.095C403.605 467.103 400.084 474.123 398.591 478.134C398.591 479.65 397.588 480.652 397.588 480.652C397.588 481.321 397.425 481.655 397.099 481.655V482.658C396.609 482.658 396.096 483.661 395.583 485.666C394.58 487.672 394.09 488.675 393.577 488.675L393.087 489.678C393.087 490.191 391.572 493.199 390.569 496.207C388.563 498.726 387.561 501.734 387.561 502.224C387.561 502.224 387.561 503.227 386.558 503.74C386.231 504.066 386.068 504.401 386.068 504.743C386.068 504.743 386.068 505.745 385.578 505.745C385.578 506.235 385.065 506.748 385.065 506.748C385.065 507.261 384.062 509.267 383.06 510.27C382.57 512.275 380.541 514.794 380.051 516.799C379.562 518.315 378.535 520.321 378.046 520.321C377.043 521.813 375.037 524.845 375.037 526.338C375.037 527.83 374.524 528.856 373.521 528.856C373.521 528.856 373.032 529.859 373.521 529.859L372.519 530.862C372.029 531.351 371.516 531.865 371.516 531.351L370.513 531.841V533.847C370.513 533.847 370.513 534.336 370 534.336C369.51 535.339 368.997 535.852 368.997 536.342C368.997 537.353 368.492 537.516 367.481 536.832C366.813 536.505 366.65 536.505 366.992 536.832C367.481 538.348 366.992 541.846 365.989 541.846C365.989 541.846 364.986 541.846 365.989 542.335C365.989 542.335 365.989 543.851 364.986 544.341C361.978 551.874 360.975 554.882 359.972 557.377C359.459 559.896 358.456 562.391 358.456 560.386C358.456 560.059 358.293 560.059 357.967 560.386C357.298 560.728 357.298 561.396 357.967 562.391C357.298 562.391 357.298 562.562 357.967 562.904C357.967 563.907 356.964 567.428 355.961 566.402V567.918C356.451 568.408 355.961 568.921 355.961 568.408C355.619 568.408 355.448 568.571 355.448 568.898C355.961 570.413 353.956 575.917 352.929 576.43C352.261 576.757 352.261 576.92 352.929 576.92C352.929 576.92 352.929 577.923 351.927 578.436C351.927 578.925 351.437 579.952 351.437 580.954C351.437 581.444 350.924 581.444 350.924 581.957C350.434 581.957 349.921 583.45 349.921 583.963C347.402 589.49 346.4 589.979 345.397 589.49C345.07 589.49 345.07 589.653 345.397 589.979C346.065 590.99 346.065 591.659 345.397 591.985C345.397 592.475 344.907 592.988 344.907 594.504C343.904 596.019 341.899 602.526 340.383 601.523C340.383 601.523 339.893 601.523 339.893 602.526C339.893 602.526 340.383 603.016 340.896 603.016L340.383 603.529C339.893 603.529 339.38 604.018 339.893 604.018C340.896 604.018 340.383 606.024 339.403 606.024C338.424 606.024 337.888 606.514 338.401 607.517C338.401 609.032 336.885 613.044 335.882 612.041V614.046C335.882 614.559 335.392 616.052 334.879 616.565C334.879 616.052 334.879 615.562 334.39 616.052C334.048 616.052 334.048 615.554 334.39 614.559C334.39 614.046 334.879 613.044 334.879 612.041C334.879 611.528 335.882 609.522 336.885 607.517C337.888 605.511 339.893 599.494 342.412 592.964C344.93 587.437 346.423 581.934 347.426 581.421C347.915 579.928 347.915 579.415 347.915 579.415V577.923C348.242 576.912 348.242 576.578 347.915 576.92C347.426 576.92 347.426 577.923 347.426 577.923C347.426 578.412 347.426 578.925 346.423 579.415C345.933 579.928 345.42 580.931 345.42 580.931C345.42 581.934 341.899 590.469 340.896 589.956C340.896 589.466 342.389 587.438 342.902 585.945C345.42 579.415 343.904 580.931 340.896 587.461C339.893 590.469 337.888 594.48 337.888 595.483C337.398 596.999 336.885 598.002 336.885 598.002C336.885 598.002 335.882 599.518 335.882 600.007C335.392 601.01 334.39 603.529 333.876 605.534C332.874 607.54 332.384 609.032 331.871 609.032C331.871 609.522 330.378 613.044 329.352 616.052C327.86 619.06 325.854 624.587 324.338 628.085C322.823 632.096 321.82 635.618 321.82 636.108C321.82 637.11 321.33 637.623 321.33 638.113C320.817 639.606 318.322 648.654 318.322 649.144C318.322 649.634 318.322 649.634 317.832 649.634C317.832 649.634 316.829 650.636 317.832 650.636C317.832 651.126 317.832 651.639 316.829 651.639C316.829 651.639 316.339 652.129 316.339 653.155C316.339 653.645 314.824 659.172 312.841 665.701C310.836 672.721 308.317 678.738 308.317 678.738C308.83 679.74 310.836 673.724 313.331 666.704C319.348 648.141 322.356 639.629 323.359 638.626C323.872 638.136 323.359 639.629 321.866 644.153C308.317 682.772 296.797 719.898 297.286 721.391C297.286 721.391 297.286 721.881 296.797 721.391C296.797 721.391 295.794 721.391 296.797 722.884C296.797 723.397 296.797 723.886 295.794 723.397C295.794 723.397 295.281 723.886 295.794 724.399C295.794 725.915 295.794 726.405 295.281 725.915C295.281 723.397 296.284 718.896 297.8 713.882C301.811 701.335 302.324 699.843 300.808 701.848C300.808 702.338 297.286 713.392 296.797 715.398C295.794 718.406 294.791 721.927 294.791 722.93C294.301 723.443 294.301 723.933 294.301 724.446C294.301 725.449 293.812 726.965 292.786 729.46C292.296 731.466 292.296 733.471 292.296 733.984C292.786 734.987 293.299 734.474 292.786 733.471C291.783 731.979 292.786 731.979 292.786 731.979C293.788 732.468 293.788 731.979 293.788 730.976C292.786 729.46 292.786 728.97 293.788 729.973C294.791 730.976 294.278 730.976 294.278 728.97C293.952 728.302 293.952 728.138 294.278 728.48C294.605 728.823 294.768 728.659 294.768 727.991C294.768 727.478 294.768 726.988 295.258 726.475C295.258 726.965 295.258 729.483 294.255 732.492C293.252 736.503 292.739 737.016 292.249 735.99L291.759 733.984L291.246 735.99C290.244 736.503 290.757 736.993 291.246 737.995C292.249 739.511 291.759 739.511 291.759 737.506V737.016C292.762 739.021 291.759 742.03 290.244 741.54C290.244 741.54 290.244 740.537 291.246 740.537C291.588 740.195 291.588 739.861 291.246 739.534C289.754 738.019 288.728 743.056 289.241 745.061C289.731 746.064 289.731 747.067 289.241 747.067V748.07C289.241 748.56 289.241 749.586 288.728 750.075C287.725 750.565 287.235 750.565 287.235 750.075C287.235 749.586 287.235 749.586 286.722 750.075C286.722 750.565 287.235 751.078 287.725 751.078C287.725 751.078 287.725 753.084 286.722 757.608C285.719 761.106 284.204 764.627 284.204 765.63C283.714 766.633 283.714 767.146 283.201 766.633C282.198 766.633 282.198 767.123 283.201 767.636C283.201 768.973 282.867 769.478 282.198 769.152C281.872 768.825 281.872 769.159 282.198 770.154V772.16C281.708 772.16 281.708 772.673 281.708 773.676C281.708 774.166 281.708 774.679 281.219 774.679C280.729 775.168 279.703 776.684 278.7 780.695C277.697 790.233 275.692 792.729 276.181 784.706V780.182L276.345 780.066ZM278.35 410.924C277.86 410.924 278.35 411.414 278.863 410.924C279.866 410.924 279.866 410.411 279.866 410.411C279.376 410.411 278.863 410.411 278.35 410.924ZM278.863 769.035C278.863 769.525 278.863 770.038 278.863 769.525V768.522C278.863 767.853 278.863 768.017 278.863 769.012V769.035ZM279.353 763.531V766.05C279.353 766.719 279.353 766.719 279.353 766.05C279.843 764.534 279.843 763.531 279.843 763.042C279.843 762.373 279.679 762.536 279.353 763.531ZM279.866 728.924V731.442C279.866 732.111 279.866 732.111 279.866 731.442C280.869 729.95 280.869 729.437 280.869 728.924C280.869 728.411 280.869 728.434 279.866 728.924ZM280.869 766.54C280.869 767.029 280.869 767.542 280.869 767.029V766.027C280.869 765.685 280.869 765.848 280.869 766.516V766.54ZM281.358 754.996C281.358 755.509 281.848 755.999 281.848 755.999V754.996C281.848 754.327 281.685 754.327 281.358 754.996ZM283.364 764.021C283.364 764.511 283.854 765.514 283.854 765.514V764.021C283.854 763.679 283.691 763.679 283.364 764.021ZM283.877 761.502C283.877 762.015 284.367 763.018 284.367 763.018V761.502C284.367 761.176 284.204 761.176 283.877 761.502ZM284.367 759.007C284.367 760.01 284.857 760.523 284.857 760.523V759.007C284.857 758.681 284.693 758.681 284.367 759.007ZM284.88 756.489C284.88 757.491 285.883 758.004 285.883 758.004V756.489C285.883 756.162 285.548 756.162 284.88 756.489ZM286.372 752.477C286.372 752.967 286.862 753.48 286.862 753.48V752.477C286.862 752.151 286.699 752.151 286.372 752.477ZM287.888 745.458C287.888 745.948 288.891 746.974 288.891 746.974V745.458C288.891 745.131 288.557 745.131 287.888 745.458ZM290.384 684.265C290.384 685.267 289.894 685.78 289.894 686.27C289.894 688.276 290.384 687.786 291.386 685.267C291.386 684.257 291.052 683.923 290.384 684.265ZM291.899 679.764C291.899 680.254 291.386 680.767 291.386 681.769C291.386 683.775 291.899 683.285 292.389 681.28C292.389 680.277 292.389 679.764 291.899 679.764ZM292.902 677.245L292.412 677.735V678.738C292.902 678.738 292.902 678.225 292.902 677.735V677.245ZM295.397 667.73C294.908 667.73 292.879 673.747 292.879 675.753C293.882 676.266 294.884 672.255 295.397 669.736V667.73ZM295.911 664.722C295.911 665.212 295.397 665.725 295.397 666.728C295.397 667.217 295.911 667.217 295.911 666.728C296.913 665.725 296.913 665.212 296.913 664.722C296.913 664.232 296.913 664.232 295.911 664.722ZM296.913 685.78C296.913 686.27 297.403 686.783 297.403 686.783V685.78C297.403 685.454 297.24 685.454 296.913 685.78ZM302.44 697.814C302.44 698.817 301.927 699.306 301.927 699.819C302.44 700.309 302.93 698.817 302.93 697.301L302.44 697.814ZM303.933 693.313C303.443 694.316 303.443 695.832 303.443 696.321C303.443 696.811 302.953 696.321 303.933 694.806C304.446 693.803 304.936 692.287 304.936 691.797C304.936 691.307 304.936 691.797 303.933 693.313ZM311.465 649.657C311.465 649.657 309.95 652.175 308.947 655.674C307.944 658.682 307.431 662.203 306.428 663.696C305.915 664.186 305.425 665.188 305.425 665.701C305.425 667.707 307.431 664.699 308.947 657.166C310.952 653.645 311.465 649.634 311.465 649.634V649.657ZM306.451 684.265C306.451 685.267 305.938 685.78 305.938 686.27C306.451 686.76 307.454 685.267 307.454 683.752L306.451 684.241V684.265ZM307.944 680.767C307.944 681.256 307.454 681.769 307.454 682.772C307.944 683.262 308.457 681.256 308.457 680.253L307.967 680.767H307.944ZM332.011 591.985C333.014 588.977 334.016 586.458 334.016 586.458C334.016 584.942 327.487 601.01 327.487 602.503C327.487 603.505 328 602.503 329.492 599.984C330.005 598.468 331.498 594.97 332.011 591.962V591.985ZM345.56 591.495C345.56 590.827 345.397 590.492 345.07 590.492V591.495L345.56 591.985V591.495ZM356.591 540.82C356.101 540.82 351.577 549.355 351.577 550.358C351.577 551.85 352.067 551.361 353.582 548.842C356.101 543.315 356.591 540.82 356.591 540.82ZM364.123 522.28C364.123 522.28 356.591 538.324 356.591 539.327C356.591 540.82 357.594 539.817 361.115 531.305C363.121 526.291 364.123 522.769 364.123 522.28ZM362.118 546.836C361.605 547.326 362.118 547.326 362.607 546.836C362.607 546.347 363.61 546.347 362.607 545.834C362.607 545.834 362.118 546.323 362.118 546.836ZM364.636 540.82C364.123 541.822 363.634 543.338 363.634 543.338C363.634 543.851 364.123 543.338 364.636 541.846C365.126 540.843 366.129 539.327 366.129 538.837C366.129 538.837 365.126 539.35 364.636 540.843V540.82ZM366.129 517.756L365.126 519.248L366.642 517.756C367.132 517.242 367.132 515.75 367.132 515.237C367.132 514.724 367.132 516.24 366.129 517.756ZM370.14 528.786C370.14 528.786 369.65 529.789 369.137 530.279C369.137 531.282 368.134 532.797 367.621 533.8C367.132 535.316 367.132 535.806 367.132 535.806C367.621 535.806 368.134 534.29 369.137 532.797C370.14 530.792 370.14 528.786 370.14 528.786ZM375.154 518.269C374.641 518.269 372.146 523.283 372.146 523.796C372.146 525.311 373.661 522.303 374.664 520.298C375.177 519.295 375.177 518.292 375.177 518.292L375.154 518.269ZM519.112 421.465C518.109 421.465 519.112 421.978 520.115 421.978C522.12 421.978 522.633 421.465 522.12 421.465H519.112ZM530.143 416.428C527.624 416.428 529.653 417.43 533.151 417.43C537.675 417.43 538.678 416.428 536.672 416.428H530.143ZM549.196 417.454C548.706 417.943 549.685 417.943 551.714 417.943C553.743 417.943 554.723 417.943 554.723 417.454H549.196ZM555.212 421.465C554.723 421.978 555.212 421.978 555.702 421.978C556.371 421.978 556.705 421.807 556.705 421.465H555.212ZM577.787 418.456C577.787 418.456 576.294 418.456 574.288 417.967C571.77 417.967 568.272 417.967 565.263 417.477H557.241C555.725 417.477 560.249 417.967 566.266 418.48C572.796 418.97 577.81 418.97 577.81 418.97V418.48L577.787 418.456ZM561.742 421.955C561.742 421.442 560.739 421.441 560.226 421.441H558.221L559.736 421.955C560.739 421.955 561.742 422.957 561.742 422.957V421.955ZM578.3 413.932C576.784 413.443 574.288 413.443 572.773 413.443H570.254L573.262 413.932C575.268 413.932 576.784 414.935 578.276 414.935H580.795L578.276 413.932H578.3ZM591.826 417.943C591.336 418.433 591.826 418.433 592.315 418.433C592.805 418.433 592.805 418.433 592.805 417.943H591.802H591.826ZM592.828 418.946C592.339 419.459 592.828 419.459 593.831 419.459C594.158 419.459 594.321 419.288 594.321 418.946H592.805H592.828ZM598.355 418.456C597.866 418.946 598.355 418.946 599.358 418.946C599.7 418.946 599.871 418.783 599.871 418.456H598.355ZM603.882 420.462C603.369 420.952 603.882 420.952 604.885 420.952C605.212 420.952 605.375 420.789 605.375 420.462H603.882Z" fill="url(#paint0_linear_400_111)"/>
<path d="M400.223 706.349C400.736 705.836 399.221 705.836 396.725 705.836C393.204 706.349 392.201 705.836 389.193 702.828L385.182 698.817C384.692 695.808 383.689 693.803 382.663 694.292C380.657 694.782 377.136 692.777 377.136 691.284C377.136 690.281 376.623 689.768 376.133 689.768C375.643 689.768 374.617 687.763 373.125 685.244C369.603 678.225 370.606 671.205 378.139 646.625C380.657 640.608 380.144 641.098 387.164 626.056C391.688 616.029 404.211 594.457 405.727 592.964C406.217 592.964 408.246 589.956 410.251 586.948C419.789 572.909 439.332 555.348 450.386 551.337C458.921 548.329 463.422 547.839 476.458 549.821C482.988 550.334 484.481 550.824 483.991 552.34C483.991 552.83 483.991 553.343 484.481 552.83C484.97 552.317 485.973 552.83 486.999 553.832C487.489 554.346 489.005 555.348 489.518 555.348C490.521 555.348 492.526 556.351 494.042 557.867L497.05 560.386L502.577 554.859C505.096 551.85 508.594 549.332 509.107 549.332C510.11 549.332 511.113 549.332 511.626 548.842C511.626 548.352 512.629 547.839 513.142 548.352C513.655 548.865 514.658 548.352 515.147 547.349C515.474 547.023 515.637 547.023 515.637 547.349C515.637 548.352 517.153 548.865 519.648 548.865C524.172 548.865 527.181 551.384 527.181 555.395C527.181 556.911 527.67 557.914 528.183 557.914C528.183 557.914 529.699 559.919 530.702 561.925L532.708 565.446L528.183 576.99C525.665 583.52 523.659 589.023 524.172 589.536C524.172 590.026 524.172 590.539 523.683 590.026C522.167 589.536 521.164 593.034 522.167 594.55C522.68 595.063 522.167 595.063 521.677 595.063C520.674 594.061 518.156 598.561 519.158 600.077C519.648 600.567 519.158 601.08 518.669 601.08C518.179 601.08 517.666 601.08 518.156 601.593C518.669 602.083 518.156 602.596 517.666 603.086C517.176 603.086 511.136 615.119 506.635 625.66C501.108 638.696 497.097 662.786 499.616 667.287C500.105 668.803 500.619 671.298 500.619 672.814C501.132 675.333 501.621 676.336 503.137 676.336C507.661 677.338 530.725 662.297 552.297 645.249C576.877 625.683 578.369 624.68 580.375 621.182C580.865 619.667 581.378 619.667 581.378 621.672C581.378 623.351 581.883 623.514 582.894 622.162C584.386 619.643 586.392 621.672 584.899 624.167C583.896 627.176 583.896 627.689 585.902 626.173C586.57 625.504 586.57 626.173 585.902 628.179C584.899 629.694 583.896 631.7 583.896 632.703C583.896 633.192 583.407 634.219 582.894 634.219C582.381 634.219 575.874 640.235 567.852 648.258C560.319 655.79 550.291 665.818 544.788 670.319C538.771 675.333 536.252 678.341 536.765 678.854C537.768 680.347 548.799 670.319 562.348 655.79C568.365 649.773 573.379 644.759 573.892 644.759C574.405 645.249 583.92 635.221 585.925 631.723C586.594 630.713 586.928 630.713 586.928 631.723C586.928 635.221 583.92 639.746 574.382 650.286C568.855 656.816 564.354 661.83 564.843 662.32C564.843 662.81 564.354 663.836 562.838 664.839L560.832 666.844C560.832 666.844 561.345 666.844 561.345 667.334C561.345 668.337 559.34 669.852 558.337 669.852C557.847 669.852 557.334 669.852 556.845 670.342C556.331 670.832 556.844 670.832 557.334 670.832C557.824 670.342 558.337 670.342 558.337 670.832C558.337 672.348 539.284 691.89 537.768 692.403C536.765 692.403 535.25 693.406 533.757 693.919C531.238 695.925 529.746 696.438 530.749 694.922C530.749 693.919 529.256 694.432 527.251 695.412C525.245 696.928 523.24 697.93 523.24 697.93C523.24 698.933 526.248 698.42 527.764 696.928C528.767 695.925 529.28 695.412 529.769 695.925C530.259 696.415 527.764 698.933 525.245 700.939L522.726 702.455L525.245 701.965C528.253 700.962 538.281 695.435 542.806 691.424C547.33 687.903 548.822 687.413 547.33 689.418C546.84 689.908 547.33 689.908 548.332 689.418C549.335 688.416 549.825 687.413 549.825 686.9C549.825 686.387 553.346 681.886 557.847 677.875C565.87 668.85 586.928 642.777 589.447 638.253C589.936 636.247 591.452 635.245 591.965 635.245C592.968 635.245 592.968 636.761 591.965 637.25C590.963 637.763 590.963 638.766 590.963 639.256C590.963 639.746 590.963 639.746 591.965 638.766C592.455 638.276 592.455 637.763 592.455 638.276C592.455 642.287 551.831 694.456 549.825 693.453C549.335 692.94 548.822 693.453 547.819 694.456C547.151 695.466 547.485 695.629 548.822 694.945C549.817 693.95 549.817 694.114 548.822 695.435C547.819 696.438 546.304 697.441 545.814 696.951C545.324 696.461 545.324 696.951 545.814 697.441C546.327 698.444 538.794 704.973 533.78 707.469C529.769 709.987 514.214 710.477 510.203 708.471C508.687 707.469 507.195 706.955 506.682 706.955C505.679 706.955 501.668 703.434 497.144 698.933C489.611 691.401 487.606 689.908 484.108 687.39C483.105 686.876 481.589 683.868 479.583 680.86L477.065 675.333V660.781C477.578 644.223 479.583 634.195 487.093 611.621C489.611 605.604 491.104 600.59 490.614 600.077L487.606 603.086C486.09 605.091 484.108 607.61 482.592 609.102C481.076 610.595 478.068 614.629 475.572 618.127C473.054 621.649 471.048 624.657 470.558 624.657C470.558 624.657 472.074 621.649 474.569 618.64C485.6 603.086 487.606 599.074 484.597 602.083C483.081 604.088 468.553 624.144 455.003 643.71C451.482 648.724 448.987 653.248 448.987 653.248C449.313 653.575 449.313 653.738 448.987 653.738C448.497 653.738 443.973 658.752 439.449 664.769C427.415 680.813 422.401 686.83 415.382 693.36C411.884 696.858 409.365 699.889 409.365 700.379C409.365 700.869 408.362 701.382 406.357 701.895C404.351 702.385 403.838 702.385 404.864 703.387C405.867 703.877 406.87 703.877 407.383 703.387C407.873 703.387 407.873 703.877 407.383 705.393C406.87 707.399 406.87 707.912 408.386 707.399C411.402 706.388 412.405 705.548 411.394 704.88C410.391 704.39 410.881 703.877 412.886 703.364C414.402 702.361 414.892 701.872 414.892 701.359C414.402 700.869 414.892 700.356 415.382 700.356C417.387 700.356 419.906 697.837 430.424 683.308C440.451 669.759 441.967 667.754 439.449 668.756C438.438 669.083 438.267 668.578 438.936 667.241C440.451 664.722 441.944 663.742 441.454 665.748C440.451 667.241 440.941 667.241 441.944 666.238C443.46 665.235 443.46 664.722 442.947 663.719C442.278 663.051 442.278 662.716 442.947 662.716C443.95 663.206 445.465 661.714 447.961 657.702C451.459 652.175 459.994 640.142 461.51 638.649C462.513 637.647 456.986 647.675 450.479 657.702C445.955 664.232 443.949 668.733 444.463 669.736C444.952 671.228 444.463 671.228 443.973 670.226C442.97 668.22 441.454 670.226 442.457 672.744C442.783 673.413 442.62 673.413 441.967 672.744C441.478 672.254 440.964 672.254 440.451 672.744C439.938 673.234 440.451 674.26 440.941 675.263C441.454 676.266 441.944 676.779 440.941 676.779C440.451 676.779 439.938 677.268 439.938 677.781C439.612 678.108 439.449 677.774 439.449 676.779C439.938 673.77 438.446 674.773 436.44 678.784C435.437 681.303 435.437 681.793 436.44 680.79C436.953 680.277 437.956 679.787 438.446 680.277C438.936 680.79 429.911 694.829 428.908 694.829C428.418 694.829 428.908 693.336 428.908 692.31C429.397 690.305 429.397 689.792 428.418 690.305C427.905 690.794 427.905 692.31 427.905 693.826C428.418 696.345 426.902 699.353 425.386 697.837C425.386 697.837 424.897 698.327 425.386 699.33C425.386 700.332 424.897 700.846 423.381 700.846C422.891 700.846 422.378 700.846 422.378 701.335C423.381 702.851 410.345 712.879 407.336 712.366C406.823 712.366 404.818 711.876 402.812 710.873C399.291 709.358 398.288 708.355 400.293 706.349H400.223ZM405.237 656.187C404.748 656.187 405.237 655.697 405.727 655.697C406.217 655.697 406.73 655.207 406.217 654.694C405.727 654.694 406.217 653.691 406.707 653.691C407.196 653.691 410.228 648.164 413.726 641.658C425.27 619.084 437.793 601.033 452.858 587.484C455.377 584.965 457.382 582.96 456.869 582.96C455.866 582.96 440.311 598.515 435.298 604.531C428.768 613.067 420.256 626.593 415.242 636.621C412.233 641.145 410.228 645.156 409.715 645.156C408.712 645.156 416.245 630.114 421.748 621.089C426.762 613.067 425.759 613.557 420.256 621.579C411.72 634.615 399.687 662.203 402.206 662.203C402.719 662.203 403.721 661.201 404.211 659.685C405.214 658.169 405.214 656.676 405.214 656.163L405.237 656.187ZM467.946 595.506C482.498 576.943 486.51 571.44 483.501 573.935C482.009 574.938 473.963 577.433 472.96 577.433C472.471 576.943 471.958 577.433 471.958 577.946C471.958 578.459 471.468 579.439 469.952 579.952C468.941 580.62 468.607 580.62 468.949 579.952C469.439 578.949 468.949 578.949 467.433 579.952C466.431 580.441 465.428 581.444 465.918 581.957C466.407 581.957 465.428 582.96 464.915 583.963C463.904 584.631 463.733 584.468 464.402 583.473C466.407 580.954 464.402 581.467 461.883 583.963C460.88 584.965 460.88 585.479 461.883 584.965C462.552 584.639 462.552 584.973 461.883 585.968C460.391 587.484 459.364 587.974 460.391 586.481C461.393 584.965 459.877 585.479 457.382 587.484C456.379 589 455.377 590.003 455.866 590.492C455.866 591.006 455.866 591.495 455.377 591.006C454.887 590.492 452.858 592.008 450.852 594.014C448.847 596.019 446.841 597.535 446.328 597.535C445.838 597.046 445.325 597.046 445.838 597.535C446.328 598.538 443.32 603.062 442.317 602.549C441.314 602.059 433.292 612.577 433.782 613.09C433.782 613.09 434.785 612.6 435.787 611.574C438.306 608.566 436.277 612.087 428.768 623.118C425.246 628.645 420.746 635.664 419.23 638.673C415.219 646.695 411.207 654.717 411.697 654.717C412.187 654.717 416.221 651.219 420.722 647.185C431.753 637.647 453.814 613.09 467.876 595.53L467.946 595.506ZM434.341 684.265C434.341 683.262 433.852 683.262 432.336 685.267C431.333 686.27 430.33 688.276 430.33 688.765C430.33 690.281 430.843 690.281 431.333 688.765C431.333 688.276 432.336 687.273 432.849 686.76C433.852 686.27 434.341 685.267 434.341 684.241V684.265ZM442.364 603.016C442.853 603.529 438.842 609.032 437.84 609.032C437.35 609.522 438.329 608.03 439.355 606.024C440.848 604.018 442.364 603.016 442.364 603.016ZM482.988 601.01C490.008 591.985 491.01 590.469 489.005 591.985C484.481 595.996 454.91 635.618 455.89 637.134C456.232 637.802 460.08 632.951 467.433 622.582C472.96 615.049 479.98 605.534 482.988 601.01ZM489.005 596.999C488.002 597.489 487.489 598.491 487.489 599.004V600.007C487.489 599.518 488.492 598.491 489.005 597.489C490.015 596.152 490.015 595.988 489.005 596.999ZM495.535 693.803C495.535 693.803 495.045 694.292 495.045 694.805C495.045 695.319 495.535 695.808 496.537 695.808C497.05 695.808 497.54 695.295 497.05 694.805C497.05 694.316 496.048 693.803 495.535 693.803ZM496.537 634.615C496.048 635.105 496.537 635.618 497.54 635.105C498.03 635.105 498.543 634.615 498.543 634.615C498.543 633.099 497.05 633.099 496.537 634.615ZM501.551 619.06C501.062 619.55 500.549 620.063 500.549 620.576C500.549 622.069 501.062 621.579 502.064 620.063C502.064 619.573 502.064 619.06 501.575 619.06H501.551ZM521.094 703.341C519.578 703.341 518.575 703.831 518.575 704.344C518.575 705.346 520.581 705.346 522.587 704.344C523.589 703.341 523.076 703.341 521.071 703.341H521.094ZM531.145 684.265C531.635 684.265 531.635 683.775 531.145 683.262C531.145 682.772 531.635 682.259 532.148 682.259C533.151 682.259 533.664 681.769 533.151 681.256C532.638 680.253 533.151 680.253 534.154 680.766C535.669 681.256 537.162 679.764 535.669 679.251C535.156 678.761 531.145 681.256 526.644 684.265C518.109 689.792 517.106 692.287 525.642 687.273C528.16 685.267 530.655 684.265 531.169 684.265H531.145ZM526.621 702.338C526.131 702.338 525.128 702.828 524.615 703.341C524.615 703.831 524.615 704.344 525.618 704.344C526.108 704.344 527.134 703.831 527.624 703.341C528.114 702.851 527.624 702.338 526.621 702.338ZM548.682 673.747L546.677 675.753C545.674 676.755 545.161 677.758 545.161 677.758C545.651 677.758 546.677 676.755 547.679 675.753C548.193 674.75 549.195 673.747 548.682 673.747ZM564.75 661.714L561.742 664.232C559.223 666.751 558.733 667.754 560.226 666.751H560.716L562.721 664.232L564.727 661.714H564.75Z" fill="white"/>
<path d="M576.76 747.976C575.757 747.976 575.757 746.46 575.757 744.455C575.757 741.446 576.247 741.446 575.267 743.452C574.778 744.968 573.752 745.458 573.262 744.968C572.772 744.455 571.746 743.452 570.743 742.962C569.227 741.959 568.225 740.957 568.225 738.951C568.225 736.432 568.225 735.943 567.222 736.945C565.216 738.951 563.7 737.948 562.208 735.43C561.695 734.427 560.692 733.424 559.689 733.424C558.173 733.424 556.168 730.416 556.168 727.897C556.168 726.894 555.678 726.381 554.652 726.381C552.133 726.381 549.125 721.367 549.638 718.849C550.128 717.846 549.638 716.843 549.148 716.843C548.635 716.33 548.635 715.327 549.148 713.322C550.151 710.803 550.151 709.8 549.148 709.311C548.48 708.642 548.309 708.642 548.635 709.311C548.635 710.313 548.635 711.829 548.145 713.322C547.656 715.327 547.656 716.33 548.145 717.333C548.814 718.001 548.651 718.165 547.656 717.823C545.137 716.82 544.647 711.806 545.137 704.273C545.627 700.752 546.14 696.741 546.14 695.738C547.143 692.217 556.681 673.164 557.171 673.677C558.173 674.19 561.182 666.657 561.182 664.652C561.182 664.325 561.345 664.162 561.671 664.162C562.185 664.652 569.694 650.123 578.229 632.562C595.789 597.465 602.296 585.921 611.834 571.882C617.851 562.857 625.383 553.832 625.383 555.838C625.383 556.351 621.885 562.857 615.845 573.398C610.831 582.423 609.315 585.945 609.828 585.945C610.342 585.945 619.367 569.387 619.367 568.384C619.367 567.894 620.369 567.381 620.882 566.868C621.372 566.379 623.891 562.344 625.896 558.333C627.902 553.809 629.418 550.8 629.418 551.314C629.744 552.324 630.25 552.324 630.934 551.314C631.423 550.311 631.936 550.311 631.423 552.316C631.423 553.809 631.423 554.322 631.913 554.322C632.916 554.322 633.429 553.809 633.429 553.319C633.429 550.311 635.434 554.322 635.434 557.843C635.434 560.852 635.924 561.854 637.44 561.365C639.959 560.875 642.967 568.384 642.967 574.914C642.967 579.928 640.448 592.474 638.956 596.486C637.953 600.007 637.953 600.497 639.446 598.491C640.114 597.154 640.448 597.317 640.448 598.981C640.122 600.318 640.456 600.652 641.451 599.984C642.454 598.981 643.457 598.468 642.944 598.468C642.944 597.978 648.471 592.941 648.96 592.941C649.963 592.941 651.969 591.425 651.969 590.422C651.969 589.932 651.456 589.932 650.453 590.422C649.45 591.425 649.963 590.422 650.943 589.419C653.461 586.411 654.954 585.898 652.459 588.417C651.969 589.419 651.969 589.909 652.459 589.909C652.948 589.419 657.472 584.895 661.997 579.881C666.521 574.867 671.535 569.853 673.54 567.848L676.549 564.839L674.03 567.848C673.027 569.364 671.511 570.856 671.511 570.856C671.511 571.369 668.993 573.865 666.498 576.873C663.489 580.394 665.495 578.878 671.022 573.375C676.036 567.848 680.56 563.837 681.05 563.837C681.539 564.326 681.539 563.347 681.539 562.834C681.05 561.318 686.553 556.304 687.556 556.817C688.069 557.307 688.069 556.817 687.556 556.327C687.066 555.325 701.595 539.28 702.598 540.283C702.598 540.283 703.111 541.286 702.108 542.288L703.111 541.286C706.119 538.277 706.609 537.764 704.114 539.28L706.632 536.761C708.638 534.756 711.646 531.748 712.159 530.232C713.652 527.223 713.162 527.223 713.162 529.742C713.162 531.748 714.67 531.911 717.686 530.232C721.208 528.739 721.697 528.739 723.703 530.232C729.72 534.243 733.731 542.778 733.241 550.287C732.238 560.828 720.695 591.425 707.169 618.5C702.644 628.038 693.619 651.102 694.132 651.592C694.132 652.082 694.132 652.595 693.643 653.598C693.153 654.6 694.132 653.598 696.651 651.079C701.175 646.555 701.175 647.068 697.141 652.595C696.138 654.087 695.135 655.603 695.625 655.603C696.115 655.603 696.115 656.093 696.115 656.606C695.788 656.948 695.788 657.119 696.115 657.119C697.117 656.606 697.117 655.603 697.117 654.6C696.628 653.598 696.628 653.108 697.117 653.598C698.12 654.6 698.61 653.598 699.636 653.108C700.126 652.618 700.126 652.105 699.636 652.105C699.636 652.105 700.126 650.613 701.152 649.587C704.65 646.088 706.166 644.06 707.169 642.567C707.682 641.564 707.169 641.564 706.166 643.057C705.676 644.06 704.65 644.573 704.65 644.06C704.65 644.06 706.656 641.051 709.664 637.04C712.672 633.029 715.191 630.51 715.191 631.023C715.191 631.536 714.188 633.029 712.183 635.034C706.166 642.567 707.658 642.054 714.701 634.032C719.225 628.505 719.715 626.499 717.22 629.018C715.704 630.021 715.704 629.507 717.22 628.015C718.223 626.499 719.225 626.009 719.738 626.499C720.251 626.989 724.263 623.001 724.263 621.975C724.263 621.485 723.26 621.975 721.744 622.978L722.747 621.975C724.752 619.969 725.755 618.477 726.245 618.477C726.758 619.48 732.775 613.463 732.775 612.46C732.775 611.97 732.285 611.97 731.282 612.95C730.279 613.953 731.282 612.46 733.288 609.942C735.293 607.936 736.786 606.933 737.299 606.933C737.812 606.933 738.815 606.933 739.304 605.93C739.817 605.441 739.817 604.928 739.817 604.928L748.353 596.392C748.353 595.903 747.84 596.392 743.829 600.403L739.817 604.928V604.438C739.304 604.438 740.82 602.432 743.316 599.914C745.811 597.395 748.329 595.389 748.843 595.903C749.845 596.392 755.862 590.376 755.372 589.373C754.883 588.883 754.883 588.37 755.862 588.883C756.352 588.883 758.381 588.883 760.386 587.367C762.734 585.688 762.571 585.851 759.896 587.857C754.883 591.868 735.83 611.434 731.305 616.938C729.3 619.456 731.795 617.427 736.832 612.413C742.359 607.4 748.376 601.383 750.382 599.867C752.9 597.861 756.398 594.853 758.404 592.848C759.92 591.332 763.418 588.323 765.937 586.831C768.455 584.825 770.461 583.822 770.95 583.309C770.95 582.983 770.616 582.485 769.948 581.817C768.945 580.814 769.435 581.304 771.953 581.304C774.472 581.817 775.451 581.817 775.964 580.814C776.454 579.298 779.976 579.298 780.978 580.814C781.468 581.304 782.494 581.817 783.497 582.82C785.013 582.82 785.013 583.822 785.013 584.335C784.523 585.338 785.013 586.854 786.016 587.834C787.018 589.839 787.531 590.352 786.505 590.842C785.837 591.168 785.837 591.332 786.505 591.332C790.027 591.332 793.035 606.887 791.029 617.917C791.029 619.433 790.027 622.931 790.027 625.45C789.537 627.968 789.024 632.469 788.511 635.991C788.021 638.999 787.508 645.016 787.018 648.537C786.505 652.035 786.505 657.072 785.502 659.568C785.013 664.582 785.013 676.615 785.502 678.131C785.992 678.644 786.505 680.137 785.992 681.652C785.503 685.174 789.001 687.669 794.015 686.666C798.539 686.177 815.073 677.641 823.608 671.624C827.62 668.616 837.158 661.597 845.18 656.07C858.216 646.532 871.765 634.498 871.765 632.493C871.765 632.003 872.768 631.49 873.771 630.977C874.774 630.487 875.777 630.977 875.777 631.49C875.777 632.493 876.266 632.493 876.779 631.49C878.272 628.971 878.785 630.977 877.782 634.008C876.266 637.53 867.241 649.05 864.233 651.056C863.23 652.059 862.717 652.572 863.23 652.572C864.233 652.572 875.777 641.028 875.777 640.025C875.777 638.509 878.785 636.504 881.304 636.504C882.306 636.504 883.822 637.506 883.822 639.022C884.312 641.028 884.825 643.033 885.338 644.036C889.862 650.053 878.808 664.092 853.249 685.174C848.725 688.672 844.224 692.706 842.708 694.199C841.192 695.202 840.189 696.204 840.702 695.202C841.192 694.712 839.187 695.715 836.691 697.207C829.159 703.224 818.128 709.241 812.111 710.756C805.092 712.762 803.576 713.765 808.1 713.765C811.109 713.765 821.136 708.751 831.164 702.221C839.7 697.207 840.189 696.694 836.178 700.705C830.161 705.719 819.131 713.252 814.607 715.257C808.077 717.776 803.576 717.263 797.559 713.741C794.038 712.226 791.543 711.223 791.029 711.223C790.027 711.223 788.021 709.707 786.016 707.701L777.993 699.679C772.466 695.155 768.455 690.654 765.447 686.13C763.931 684.124 762.438 682.632 762.438 682.632C761.949 683.122 761.949 682.632 761.949 682.119C761.949 680.113 758.427 671.088 757.938 671.578C757.448 672.091 757.448 671.088 757.448 670.085C757.938 669.083 757.938 668.08 757.448 668.57C755.442 669.572 754.929 667.054 755.442 653.528C755.932 639.489 757.961 628.948 761.972 617.917C762.975 614.909 763.488 612.39 763.488 611.9C761.482 610.385 729.883 650.519 713.325 675.589C708.311 683.122 702.784 691.144 700.779 693.149C696.768 698.163 686.74 705.696 685.224 705.183C684.734 704.693 683.218 704.693 681.703 704.18C680.21 703.667 679.184 703.177 679.184 702.175C679.184 701.685 676.665 700.169 673.657 698.653C670.649 697.137 668.13 695.645 668.13 695.132C668.13 694.619 667.127 692.123 666.124 690.118C665.122 688.112 664.609 687.109 664.609 688.112C664.609 689.115 664.609 689.628 664.119 689.628C663.629 689.628 663.116 689.138 663.116 688.112C663.116 687.622 662.113 686.107 661.11 685.104C657.589 682.585 656.586 679.087 656.097 673.56C655.583 661.014 668.13 617.894 680.163 591.308C681.656 587.787 683.172 584.289 683.661 583.286C685.177 579.788 683.172 581.281 680.163 585.292C678.158 587.81 671.628 596.322 665.611 604.858C653.065 621.415 638.023 643.477 630.514 656.023C624.987 665.561 616.965 681.606 614.959 686.107C614.469 687.622 613.467 689.628 613.467 689.628C612.953 690.118 611.951 692.636 610.948 695.645C609.455 700.659 603.928 711.689 589.889 738.788C588.374 741.796 586.368 744.805 585.365 745.807C582.847 748.326 579.348 749.329 578.346 748.326C577.856 748.326 577.343 747.836 576.83 747.836L576.76 747.976ZM550.687 706.839C550.361 707.849 550.532 708.183 551.2 707.841C551.69 707.352 552.203 706.349 551.69 705.836C551.201 704.833 551.2 705.346 550.687 706.839ZM556.214 703.83C554.699 705.346 551.69 709.847 551.69 711.853C551.69 713.368 554.699 709.847 556.214 706.326C557.217 702.804 557.73 702.314 556.214 703.807V703.83ZM563.234 681.769C562.744 681.769 560.226 686.293 557.707 691.307C552.18 703.341 552.693 702.851 553.183 702.851C553.672 702.851 555.188 699.329 557.707 694.828C563.234 683.285 563.724 681.792 563.234 681.792V681.769ZM559.713 697.324C560.715 696.321 560.715 695.318 560.202 694.805C559.713 693.802 559.199 694.805 558.197 697.324C557.707 699.329 557.194 700.845 557.194 700.845C558.197 700.845 558.197 700.355 558.197 699.842C558.197 698.84 558.686 698.327 559.713 697.324ZM560.715 692.8C561.205 693.802 561.205 694.315 561.718 693.802C562.231 693.802 561.718 692.8 561.228 692.287C560.226 691.284 560.226 691.797 560.739 692.776L560.715 692.8ZM569.74 667.73C571.746 663.206 574.265 658.705 573.752 658.705C573.262 658.215 571.233 662.226 569.227 667.24L563.7 678.271C562.698 680.276 562.698 680.789 563.7 680.789C564.213 680.789 564.703 679.787 565.216 678.271C565.706 677.268 567.222 672.744 569.74 667.73ZM568.738 731.419C568.248 731.419 567.222 732.421 566.732 732.934C565.729 733.937 564.726 734.45 564.213 734.45C563.7 734.45 563.211 734.94 563.7 735.453C564.703 737.459 565.706 737.459 567.711 735.453C569.717 733.96 569.717 731.442 568.714 731.442L568.738 731.419ZM571.256 712.855C570.766 712.855 570.253 713.858 570.253 714.348C570.253 715.351 570.766 715.864 571.256 715.351C571.746 715.351 572.259 714.348 572.259 713.835C572.259 713.322 571.769 712.832 571.256 712.832V712.855ZM578.276 649.656C577.786 649.167 576.76 651.172 575.757 653.178C572.749 658.705 574.241 658.705 576.76 653.668C577.763 651.662 578.765 650.146 578.276 649.656ZM596.839 649.167C595.828 649.835 595.323 649.672 595.323 648.677C596.326 647.674 595.813 647.161 595.323 647.674C594.833 648.187 594.32 648.677 594.833 649.68C594.833 650.17 595.323 651.685 594.833 652.198C594.344 653.714 593.831 653.714 593.318 652.711C592.828 651.709 592.315 652.198 592.828 652.711C593.317 653.714 592.828 656.21 591.825 658.728C588.817 664.745 591.825 659.731 595.323 653.201C597.329 649.19 597.842 648.187 596.839 649.19V649.167ZM598.331 645.156C597.329 645.645 597.329 645.156 597.818 644.153C597.818 643.811 597.655 643.64 597.329 643.64C596.839 644.153 596.326 645.156 596.839 645.156C597.329 646.671 598.844 646.671 599.847 645.156C599.847 644.666 599.358 644.666 598.355 645.156H598.331ZM600.85 640.142C599.847 639.139 599.847 638.136 601.34 638.626C602.343 638.626 602.856 638.626 603.345 638.136C603.835 637.646 603.345 637.133 602.343 637.646C600.85 638.136 600.85 637.646 601.853 635.128C603.369 632.609 604.861 632.609 603.858 635.128C603.858 635.641 604.861 634.125 606.377 631.117C608.383 628.108 609.385 625.59 608.896 625.1C608.406 624.097 611.414 617.567 612.417 618.08C612.417 618.08 613.42 618.08 613.42 617.078C613.42 616.075 613.42 616.075 612.907 616.075C612.417 616.588 612.417 616.075 612.417 615.585C612.907 614.582 613.42 614.069 614.423 614.582C614.749 614.582 614.749 614.248 614.423 613.58C614.423 613.09 614.423 612.087 614.912 612.087C615.402 612.087 615.915 611.084 615.915 610.081C615.915 609.568 617.921 604.554 620.439 599.051C622.445 594.037 625.966 586.504 627.972 581.49C629.488 576.966 631.493 572.955 631.983 573.468C632.496 573.958 631.983 573.468 631.983 572.955C631.493 571.952 631.493 570.949 630.98 570.949C630.98 570.949 629.464 575.474 627.459 579.975C625.453 584.988 618.434 600.03 611.414 614.069C600.873 635.128 598.868 639.139 600.384 640.655C601.052 641.323 600.889 641.487 599.894 641.144C598.891 641.144 598.401 641.144 598.891 641.634C599.381 642.637 601.899 642.637 601.899 641.634C601.899 641.144 601.41 640.631 600.897 640.142H600.85ZM607.356 624.587C608.849 624.587 608.359 626.592 606.867 627.595C606.354 628.085 605.864 629.111 606.354 629.601C606.354 630.091 606.354 630.604 605.864 630.604C604.861 630.604 604.861 630.114 604.861 630.114C604.861 629.111 606.867 624.587 607.38 624.587H607.356ZM628.928 635.128C633.942 628.108 637.463 622.092 637.463 622.092C635.948 622.092 616.895 649.167 613.886 655.697C609.875 663.229 606.354 670.738 606.867 670.249C607.357 669.759 610.365 664.722 613.886 659.218C617.384 653.201 623.914 642.66 628.928 635.151V635.128ZM610.365 622.068C609.696 623.747 609.86 623.911 610.855 622.558C611.368 621.555 611.857 620.552 611.857 620.039C611.857 618.547 611.857 619.55 610.342 622.045L610.365 622.068ZM627.925 631.606C625.92 632.609 625.407 633.099 626.433 633.099C626.433 633.099 627.436 632.609 627.925 631.606C628.594 630.596 628.594 630.596 627.925 631.606ZM633.452 624.587C635.971 621.578 637.463 619.573 637.976 620.576C638.466 621.065 639.982 620.063 641.498 618.057L644.016 614.559L641.008 617.078C636.997 620.599 638 619.083 641.521 614.559C643.527 612.553 644.53 611.038 644.04 612.04C643.55 614.559 644.04 614.046 646.558 611.038C648.564 608.029 648.564 607.516 646.558 609.522C645.556 610.525 644.553 611.038 644.553 610.035C644.553 610.035 645.556 608.519 646.558 607.516C647.561 607.026 648.564 606.513 648.564 607.026C648.564 607.026 649.054 607.026 650.08 606.024C652.085 604.508 653.088 602.502 651.083 603.505C650.08 603.995 650.08 603.505 650.593 602.502C651.083 602.013 651.596 602.013 652.109 602.502C652.598 602.502 657.123 597.488 662.137 591.472C667.15 584.942 672.164 578.435 673.68 576.92C675.173 574.914 675.686 574.914 674.683 575.404C673.167 576.406 670.159 579.928 667.15 583.426C664.632 586.947 661.623 589.443 661.134 588.953C661.134 588.953 656.61 593.477 651.596 599.494C642.058 611.527 629.021 629.577 629.534 629.577L633.546 624.564L633.452 624.587ZM637.953 601.523C636.95 602.526 636.437 603.528 636.437 603.528C636.437 605.021 636.95 604.531 637.953 602.526C638.622 601.189 638.622 600.854 637.953 601.523ZM648.984 604.018C649.987 603.528 649.987 604.018 649.987 604.508C649.987 604.998 649.987 605.511 648.984 606.024C648.657 606.024 648.494 605.86 648.494 605.534C648.494 605.021 648.494 604.531 648.984 604.018ZM655 598.001C655.49 598.001 655.49 598.491 655 599.517C654.511 600.007 653.485 601.01 652.482 601.01C651.992 601.01 652.482 600.007 652.972 599.517C653.461 598.514 654.487 598.001 654.977 598.001H655ZM658.522 592.498C659.525 591.495 660.014 590.492 660.014 591.495C660.014 592.498 657.006 597.022 656.516 596.019C656.516 595.529 657.519 594.014 658.522 592.498ZM662.043 582.96C662.043 582.96 660.551 584.475 659.525 585.478C658.009 586.994 657.519 587.997 657.519 587.997C658.009 587.997 658.522 586.994 660.038 585.478C661.554 583.962 662.043 582.96 662.043 582.96ZM672.071 631.606C672.071 631.093 672.071 630.604 671.581 630.604L669.576 634.615C668.573 637.623 668.06 638.626 667.57 637.623C667.081 636.62 666.567 637.11 667.081 638.626C667.081 639.629 666.078 645.645 664.562 652.175C662.043 662.203 660.038 672.744 661.554 671.228C662.043 670.738 663.069 666.704 664.072 661.2C665.588 653.178 670.089 637.623 672.094 631.606H672.071ZM670.555 652.175C669.553 651.685 667.057 666.214 667.057 668.22C667.057 671.228 667.547 668.709 669.063 660.687C670.066 656.163 670.555 652.152 670.555 652.152V652.175ZM672.071 627.595C671.581 626.592 671.581 625.59 672.071 625.077V625.566C672.071 626.569 673.074 626.569 673.587 626.569C674.1 626.569 674.077 626.079 674.077 625.566C673.587 624.564 673.587 624.05 674.077 624.05C674.566 624.05 674.566 623.048 674.566 622.045C675.056 618.034 675.056 615.515 676.082 614.512C676.572 613.999 678.088 609.498 680.606 603.971C682.612 598.444 685.62 592.428 686.133 589.932C688.652 585.408 689.142 582.913 688.652 582.913C688.652 582.913 689.142 581.91 690.145 580.907C690.658 580.418 691.147 579.392 690.658 578.902C689.142 577.899 672.608 620.529 673.097 622.045C673.61 623.048 673.097 623.048 672.608 623.048C672.118 622.535 670.602 625.053 669.599 628.575C667.081 635.594 667.081 638.603 669.599 632.586C670.602 630.067 671.115 628.575 672.118 629.088C673.634 629.577 673.121 629.577 672.118 627.572L672.071 627.595ZM673.074 641.144C672.071 643.15 671.581 646.158 671.068 648.164C670.726 650.17 671.061 650.006 672.071 647.674C672.561 645.669 673.074 642.66 673.587 640.655C673.913 638.649 673.742 638.812 673.074 641.144ZM682.589 566.402C682.589 566.402 680.583 567.918 679.067 569.923C677.062 571.439 676.059 572.932 676.059 572.932C676.549 572.932 678.065 571.439 680.07 569.923C681.563 567.918 682.589 566.402 682.589 566.402ZM679.091 697.324C676.572 698.84 676.572 699.842 679.091 699.842C680.093 699.842 681.096 698.84 681.096 698.327C681.586 696.811 681.096 696.321 679.091 697.324ZM688.116 559.895C687.603 559.895 686.6 560.898 685.597 561.901C685.107 562.904 684.105 563.907 684.594 563.907C685.084 563.907 685.597 562.904 686.6 561.901C687.603 560.898 688.605 559.895 688.116 559.895ZM696.138 550.357C696.138 550.357 695.135 551.85 693.619 553.366L691.614 555.371C692.104 555.371 693.619 554.369 694.622 553.366C696.115 551.85 696.628 550.357 696.115 550.357H696.138ZM693.643 657.189C691.637 658.682 691.637 659.195 692.127 659.195C692.617 659.195 693.13 658.682 693.643 657.679C694.653 656.668 694.653 656.505 693.643 657.189ZM694.645 548.352C691.637 551.36 691.124 552.363 693.13 551.36C693.619 550.87 695.135 549.844 696.138 547.862C697.149 546.183 696.651 546.346 694.645 548.352ZM694.132 576.43C693.806 577.44 693.977 577.604 694.645 576.92C695.135 575.917 695.648 575.917 695.135 575.404C694.645 574.914 694.645 575.404 694.132 576.406V576.43ZM704.673 541.822C703.181 542.825 702.155 544.341 701.175 544.341C700.196 544.341 700.172 544.83 700.172 544.83C701.175 545.32 700.172 546.346 699.17 547.839C698.167 548.842 697.164 549.844 697.654 549.844C697.654 549.844 700.172 547.839 702.668 544.83C705.186 542.312 705.676 540.819 704.673 541.822ZM700.149 564.396C699.659 564.396 699.659 564.909 699.659 565.912C699.659 566.915 699.659 566.915 700.662 564.909C701.175 564.396 700.662 563.907 700.172 564.396H700.149ZM724.216 625.59C722.723 627.105 722.21 627.595 722.723 627.595C723.237 627.595 723.726 627.105 724.216 626.079C725.227 625.069 725.227 624.906 724.216 625.59ZM736.762 607.539C736.762 607.539 735.76 608.053 734.244 609.545C732.728 611.061 732.728 612.064 732.728 612.064C733.241 612.064 733.731 611.061 735.247 609.545C736.762 608.029 737.252 607.539 736.739 607.539H736.762ZM742.289 628.598C743.292 627.595 743.805 626.592 743.805 626.592C743.292 626.592 742.289 627.595 741.287 628.598C740.284 629.601 740.284 630.604 740.284 630.604L742.289 628.598ZM764.351 613.556C764.351 615.072 765.354 618.08 765.867 617.078C765.867 617.078 765.867 616.075 765.377 614.559C764.864 613.556 764.374 613.043 764.374 613.556H764.351Z" fill="white"/>
<path d="M889.233 716.377C888.72 715.887 888.23 715.374 888.23 715.887C888.23 716.4 886.715 714.371 886.715 713.368C886.715 712.879 886.225 711.852 885.712 711.363C885.199 710.873 885.222 710.36 885.712 710.873C885.712 710.873 886.201 710.873 886.201 709.87C886.201 709.38 885.712 709.381 885.199 709.381C884.196 709.87 884.196 709.381 884.196 709.381C884.196 709.054 884.033 708.72 883.706 708.378C880.185 706.862 879.182 701.848 881.701 697.347C882.703 694.828 885.712 691.33 885.712 692.333C885.712 692.333 886.201 692.333 887.228 691.33C889.233 689.815 891.239 688.322 893.244 688.322C895.25 688.812 898.258 687.319 898.771 686.316C899.261 685.827 898.771 685.827 898.282 685.827C897.279 686.316 896.276 686.829 895.763 686.829C894.76 687.343 894.76 686.829 894.76 685.827C895.25 684.311 893.757 683.821 892.242 683.821C890.726 684.311 890.726 683.821 891.239 682.818C891.239 682.305 891.752 681.816 891.752 681.302C891.239 680.813 898.771 677.291 901.78 676.778C902.782 676.778 904.788 677.268 905.791 677.268C906.794 677.758 908.309 677.758 908.799 677.758C910.292 678.248 911.808 679.763 913.813 681.769C915.329 683.285 916.821 684.777 916.332 684.288C915.842 683.798 916.332 683.285 916.332 683.285C916.332 683.285 919.853 690.304 919.853 691.307L919.363 690.794C918.85 690.794 919.363 691.307 919.853 692.31C920.856 693.826 920.856 694.315 920.856 699.329C920.366 705.346 919.853 707.352 915.329 712.366C909.802 719.385 902.782 722.393 897.279 721.391C894.76 720.878 890.259 717.869 889.256 716.377H889.233ZM885.222 693.802C886.225 692.8 885.712 692.8 884.709 693.313C883.706 694.315 881.701 698.327 881.211 700.845C881.211 702.361 881.211 702.851 881.701 701.848C882.19 701.335 882.703 699.329 883.216 697.837C883.706 695.831 884.709 694.315 885.222 693.826V693.802ZM896.253 695.318C895.25 695.318 891.239 701.848 891.239 703.854C891.239 705.369 892.242 704.367 894.76 699.329C895.763 697.324 896.276 695.318 896.276 695.318H896.253ZM895.74 691.307C895.227 691.307 894.737 691.797 894.224 692.31C893.711 692.823 893.221 693.313 893.734 693.313C893.734 693.313 894.224 692.8 894.737 692.31C895.25 691.82 895.74 691.307 895.74 691.307ZM901.267 696.811C902.269 695.808 902.269 695.295 901.756 695.295C901.756 695.295 901.267 695.295 900.754 695.808C900.754 695.808 900.264 696.298 899.238 696.298C898.748 696.298 897.232 697.813 896.719 699.819L895.716 702.827L897.722 701.312C898.725 700.309 899.727 699.306 899.727 698.793C899.727 698.793 900.73 697.79 901.243 696.787L901.267 696.811ZM904.275 708.354C903.762 708.354 902.269 709.357 900.754 709.847C897.232 711.852 898.235 711.852 901.756 710.36C904.275 709.357 905.278 708.354 904.275 708.354ZM902.782 683.774C902.293 683.774 901.78 684.264 901.267 684.264C900.94 684.606 900.94 684.777 901.267 684.777C901.267 684.777 901.756 684.777 902.269 684.264C902.782 683.751 903.272 683.774 902.759 683.774H902.782ZM917.311 698.816C916.798 697.3 916.798 697.813 914.303 702.827C911.784 708.354 908.286 712.855 906.77 712.855C906.257 712.855 905.767 712.855 906.257 713.345C906.77 713.835 908.776 712.342 911.784 709.334C915.306 706.325 917.801 700.309 917.311 698.793V698.816ZM918.827 692.8C918.337 693.802 918.337 694.805 918.827 694.315C919.169 694.315 919.34 694.479 919.34 694.805C919.34 695.295 919.83 695.295 919.83 695.295V693.802C919.34 692.8 919.34 692.287 918.827 692.8Z" fill="url(#paint1_linear_400_111)"/>
<rect opacity="0.42" x="-119" y="-835" width="2763" height="2653" fill="url(#paint2_radial_400_111)"/>
</g>
<defs>
<linearGradient id="paint0_linear_400_111" x1="226.637" y1="357.368" x2="614.273" y2="357.368" gradientUnits="userSpaceOnUse">
<stop stop-color="#F53F06"/>
<stop offset="1" stop-color="#FF1100"/>
</linearGradient>
<linearGradient id="paint1_linear_400_111" x1="880.3" y1="676.778" x2="920.856" y2="676.778" gradientUnits="userSpaceOnUse">
<stop stop-color="#F53F06"/>
<stop offset="1" stop-color="#FF1100"/>
</linearGradient>
<radialGradient id="paint2_radial_400_111" cx="0" cy="0" r="1" gradientUnits="userSpaceOnUse" gradientTransform="translate(2070 -954) rotate(134.562) scale(2358.62 1817.04)">
<stop stop-color="#F53F06" stop-opacity="0.85"/>
<stop offset="1" stop-color="#F53F06" stop-opacity="0"/>
</radialGradient>
<clipPath id="clip0_400_111">
<rect width="1147" height="1147" rx="340" fill="white"/>
</clipPath>
</defs>
</svg>
